<svg width="26" height="26" viewBox="0 0 26 26" fill="none" xmlns="http://www.w3.org/2000/svg">
<path d="M12.5927 25.5006C12.0363 25.506 11.4992 25.2971 11.0927 24.9173L7.50934 21.2923C7.12762 20.9028 6.9138 20.3793 6.9138 19.8339C6.9138 19.2886 7.12762 18.765 7.50934 18.3756C7.70301 18.1803 7.93342 18.0254 8.1873 17.9196C8.44117 17.8138 8.71348 17.7594 8.9885 17.7594C9.26353 17.7594 9.53583 17.8138 9.7897 17.9196C10.0436 18.0254 10.274 18.1803 10.4677 18.3756L12.5927 20.5006L20.0927 12.9589L12.5927 5.45894L5.05101 12.9589L7.17601 15.0839C7.55773 15.4734 7.77154 15.997 7.77154 16.5423C7.77154 17.0876 7.55773 17.6112 7.17601 18.0006C6.98233 18.1959 6.75191 18.3509 6.49804 18.4566C6.24417 18.5624 5.97186 18.6169 5.69683 18.6169C5.42181 18.6169 5.14951 18.5624 4.89564 18.4566C4.64176 18.3509 4.41134 18.1959 4.21767 18.0006L0.634338 14.4173C0.434182 14.2312 0.275174 14.0054 0.167534 13.7542C0.0598945 13.5031 0.00600848 13.2322 0.00933941 12.9589C0.00528646 12.6794 0.0586668 12.4021 0.166175 12.1441C0.273683 11.8861 0.433028 11.6529 0.634338 11.4589L11.0927 1.04227C11.2863 0.847004 11.5168 0.692016 11.7706 0.586248C12.0245 0.48048 12.2968 0.426025 12.5718 0.426025C12.8469 0.426025 13.1192 0.48048 13.373 0.586248C13.6269 0.692016 13.8573 0.847004 14.051 1.04227L24.5093 11.4589C24.8937 11.8554 25.1087 12.3859 25.1087 12.9381C25.1087 13.4903 24.8937 14.0208 24.5093 14.4173L14.051 24.9173C13.6596 25.2945 13.1363 25.5039 12.5927 25.5006Z" fill="#FF4343"/>
</svg>
