<svg width="36" height="36" viewBox="0 0 36 36" fill="none" xmlns="http://www.w3.org/2000/svg">
<path d="M12.426 35.5006H2.13431C1.58177 35.5006 1.05187 35.2811 0.661168 34.8904C0.270467 34.4997 0.0509715 33.9698 0.0509715 33.4172V22.9172C0.0477059 22.3736 0.257046 21.8503 0.634306 21.4589L21.4676 0.625563C21.8571 0.24384 22.3807 0.0300293 22.926 0.0300293C23.4713 0.0300293 23.9949 0.24384 24.3843 0.625563L28.0093 4.25057C28.391 4.64 28.6049 5.16358 28.6049 5.7089C28.6049 6.25422 28.391 6.7778 28.0093 7.16723C27.8156 7.3625 27.5852 7.51749 27.3313 7.62325C27.0775 7.72902 26.8052 7.78348 26.5301 7.78348C26.2551 7.78348 25.9828 7.72902 25.7289 7.62325C25.4751 7.51749 25.2447 7.3625 25.051 7.16723L22.926 5.0839L4.09264 23.7922V31.3339H11.6343L30.5093 12.4172L28.3843 10.2922C28.0026 9.9028 27.7888 9.37922 27.7888 8.8339C27.7888 8.28858 28.0026 7.765 28.3843 7.37557C28.578 7.1803 28.8084 7.02531 29.0623 6.91954C29.3162 6.81377 29.5885 6.75932 29.8635 6.75932C30.1385 6.75932 30.4108 6.81377 30.6647 6.91954C30.9186 7.02531 31.149 7.1803 31.3427 7.37557L34.926 10.9589C35.1212 11.1526 35.2762 11.383 35.382 11.6369C35.4878 11.8907 35.5422 12.163 35.5422 12.4381C35.5422 12.7131 35.4878 12.9854 35.382 13.2393C35.2762 13.4931 35.1212 13.7236 34.926 13.9172L14.0926 34.7506C13.8845 34.9873 13.628 35.1767 13.3405 35.3061C13.0531 35.4354 12.7412 35.5018 12.426 35.5006Z" fill="#FF4343"/>
</svg>
