<svg width="64" height="65" viewBox="0 0 64 65" fill="none" xmlns="http://www.w3.org/2000/svg">
<path d="M50.7594 64.1257H13.5927C10.0969 64.1146 6.74798 62.7182 4.27994 60.2423C1.81191 57.7665 0.426039 54.4132 0.426056 50.9173V13.8757C0.437044 10.387 1.82777 7.0444 4.29462 4.57755C6.76147 2.1107 10.1041 0.719972 13.5927 0.708984H24.7177C25.2703 0.708984 25.8002 0.928478 26.1909 1.31918C26.5816 1.70988 26.8011 2.23978 26.8011 2.79232C26.8011 3.34485 26.5816 3.87476 26.1909 4.26546C25.8002 4.65616 25.2703 4.87565 24.7177 4.87565H13.5927C11.2091 4.88661 8.92633 5.83834 7.24087 7.5238C5.55541 9.20926 4.60368 11.4921 4.59272 13.8757V50.9173C4.5927 53.3081 5.53958 55.6016 7.22622 57.2961C8.91286 58.9905 11.202 59.948 13.5927 59.959H50.7594C51.9468 59.959 53.1225 59.7251 54.2195 59.2707C55.3165 58.8164 56.3132 58.1503 57.1528 57.3107C57.9924 56.4712 58.6584 55.4744 59.1128 54.3774C59.5672 53.2804 59.8011 52.1047 59.8011 50.9173V43.5007C59.8011 42.9481 60.0205 42.4182 60.4112 42.0275C60.8019 41.6368 61.3319 41.4173 61.8844 41.4173C62.4369 41.4173 62.9668 41.6368 63.3575 42.0275C63.7482 42.4182 63.9677 42.9481 63.9677 43.5007V50.9173C63.9677 54.4204 62.5761 57.78 60.0991 60.257C57.622 62.7341 54.2625 64.1257 50.7594 64.1257Z" fill="#FF4343"/>
</svg>
